<svg version="1.1" xmlns="http://www.w3.org/2000/svg" xmlns:xlink="http://www.w3.org/1999/xlink" width="885.0758" height="764.26427" viewBox="0,0,885.0758,764.26427"><defs><radialGradient cx="320.00001" cy="180.00002" r="442.53791" gradientUnits="userSpaceOnUse" id="color-1"><stop offset="0" stop-color="#07d600"/><stop offset="1" stop-color="#d6a400"/></radialGradient><radialGradient cx="320.00001" cy="180" r="442.53791" gradientUnits="userSpaceOnUse" id="color-2"><stop offset="0" stop-color="#d6a400" stop-opacity="0"/><stop offset="1" stop-color="#d6a400"/></radialGradient><linearGradient x1="199.48046" y1="91.04539" x2="440.52142" y2="91.04539" gradientUnits="userSpaceOnUse" id="color-3"><stop offset="0" stop-color="#000000"/><stop offset="1" stop-color="#272727"/></linearGradient></defs><g transform="translate(122.5379,202.13211)"><g data-paper-data="{&quot;isPaintingLayer&quot;:true}" fill-rule="nonzero" stroke-linecap="butt" stroke-linejoin="miter" stroke-miterlimit="10" stroke-dasharray="" stroke-dashoffset="0" style="mix-blend-mode: normal"><path d="M762.5379,-202.13211v764.26427h-885.0758v-764.26427z" fill="url(#color-1)" stroke="none" stroke-width="0"/><path d="M762.5379,-202.13211v764.26427h-885.0758v-764.26427z" fill="url(#color-2)" stroke="none" stroke-width="0"/><text transform="translate(112.33467,217.43012) rotate(1.64008) scale(1.09149,1.09149)" font-size="40" xml:space="preserve" fill="#ffb300" fill-rule="nonzero" stroke="#ffb300" stroke-width="2" stroke-linecap="butt" stroke-linejoin="miter" stroke-miterlimit="10" stroke-dasharray="" stroke-dashoffset="0" font-family="Pixel" font-weight="normal" text-anchor="start" style="mix-blend-mode: normal"><tspan x="0" dy="0">ScratchBit Games</tspan></text><text transform="translate(112.95357,228.67006) rotate(-1.25155) scale(1.09149,1.09149)" font-size="40" xml:space="preserve" fill="#0aff00" fill-rule="nonzero" stroke="#0aff00" stroke-width="2" stroke-linecap="butt" stroke-linejoin="miter" stroke-miterlimit="10" stroke-dasharray="" stroke-dashoffset="0" font-family="Pixel" font-weight="normal" text-anchor="start" style="mix-blend-mode: normal"><tspan x="0" dy="0">ScratchBit Games</tspan></text><text transform="translate(112.61689,223.37085) scale(1.09149,1.09149)" font-size="40" xml:space="preserve" fill="#000000" fill-rule="nonzero" stroke="#000000" stroke-width="2" stroke-linecap="butt" stroke-linejoin="miter" stroke-miterlimit="10" stroke-dasharray="" stroke-dashoffset="0" font-family="Pixel" font-weight="normal" text-anchor="start" style="mix-blend-mode: normal"><tspan x="0" dy="0">ScratchBit Games</tspan></text><path d="M251.11009,15.07719c0.70886,-0.05014 1.42763,0 2.15003,-0.00003c3.30969,0.00004 -1.0558,0.00001 4.21049,0.00003c24.9916,0.00001 36.64025,14.03793 36.64025,17.11071c16.47928,-0.00563 34.5289,-0.15624 51.78015,-0.00001c-0.00001,-3.07277 11.64866,-17.11071 36.64024,-17.11071c5.26628,0.00001 0.90079,-0.00001 4.21051,0c23.11673,0.00001 39.41739,26.36062 39.41738,31.44433c7.22877,41.23998 13.31896,75.04716 14.33362,84.0307c0.7761,28.00258 -14.34781,36.99856 -27.59222,36.46105c-3.15725,-0.12804 -2.02492,-0.17345 -0.62709,-0.17906c-31.65802,0 -34.55465,-22.59993 -51.86969,-51.42178c-31.16257,0.00003 -57.77258,-0.25915 -80.71606,0c-17.31504,28.82185 -20.30126,51.42177 -51.95926,51.42178c1.39777,0.00688 2.5301,0.05101 -0.6271,0.17918c-13.24437,0.53749 -28.36827,-8.45851 -27.59218,-36.46109c1.01467,-8.98352 7.10484,-42.79073 14.33361,-84.03069c0,-4.92481 15.29252,-29.89264 37.26733,-31.4443z" fill="url(#color-3)" stroke="none" stroke-width="0"/><text transform="translate(277.46287,99.83523) scale(1.47665,1.47665)" font-size="40" xml:space="preserve" fill="#3584ff" fill-rule="nonzero" stroke="#3584ff" stroke-width="2" stroke-linecap="butt" stroke-linejoin="miter" stroke-miterlimit="10" stroke-dasharray="" stroke-dashoffset="0" font-family="Pixel" font-weight="normal" text-anchor="start" style="mix-blend-mode: normal"><tspan x="0" dy="0">SB</tspan></text><text transform="translate(125.10384,268.83577) scale(1.95824,1.15298) skewX(-22.5633)" font-size="40" xml:space="preserve" fill="#000000" fill-rule="nonzero" stroke="#000000" stroke-width="1" stroke-linecap="butt" stroke-linejoin="miter" stroke-miterlimit="10" stroke-dasharray="" stroke-dashoffset="0" font-family="&quot;CafeteriaBold Regular&quot;, Sans Serif" font-weight="normal" text-anchor="start" style="mix-blend-mode: normal"><tspan x="0" dy="0">Official Website</tspan></text></g></g></svg>