<svg version="1.1" xmlns="http://www.w3.org/2000/svg" xmlns:xlink="http://www.w3.org/1999/xlink" width="188" height="116.53454" viewBox="0,0,188,116.53454"><g transform="translate(-226,-121.73273)"><g stroke-miterlimit="10"><path d="M226,238.26726v-116.53453h188v116.53454z" fill="#ffffff" stroke="none" stroke-width="0"/><path d="M282.42409,134.84058c3.92298,-0.34179 23.33611,-0.56428 37.5755,-0.56552c14.2398,-0.00207 23.79432,0.08161 37.57633,0.56552c4.43339,2.63204 13.16967,12.66886 13.25253,15.30131v4.35677c0,5.52344 -5.16214,10.37654 -9.84909,10.37654c-5.62739,0 -10.31724,-4.66419 -10.31724,-10.20005c0,5.53587 -4.52826,10.20005 -10.15649,10.20005c-5.62781,0 -10.01108,-4.66419 -10.01108,-10.20005c0,5.53587 -4.81496,10.20005 -10.4436,10.20005h-0.10192c-5.62823,0 -10.44319,-4.66419 -10.44319,-10.20005c0,5.53587 -4.38285,10.20005 -10.01149,10.20005c-5.62823,0 -10.15649,-4.66419 -10.15649,-10.20005c-0.00041,5.53587 -4.68943,10.20005 -10.31724,10.20005c-4.68694,0 -9.84909,-4.85394 -9.84909,-10.37654v-4.35677c0.08286,-2.63204 8.81913,-12.66844 13.25336,-15.30131zM309.43584,162.27299c0.53237,0.93705 1.19277,1.7953 1.96211,2.55001c2.20851,2.1602 5.17591,3.36845 8.26523,3.36536c0.1131,0 0.22496,-0.00498 0.33682,-0.00829h0.0029c0.11186,0.00331 0.22372,0.00829 0.33558,0.00829c3.08938,0.00298 6.05679,-1.20542 8.26522,-3.36577c0.76936,-0.75469 1.42975,-1.61296 1.96211,-2.55001c0.53813,0.93809 1.20469,1.79638 1.98034,2.55001c2.12451,2.07689 5.03703,3.36535 8.247,3.36535c3.08909,0.00299 6.05617,-1.20559 8.26398,-3.36618c0.76977,-0.75361 1.35433,-1.56025 1.89043,-2.49905l0.00249,0.00165c0.53569,0.94088 1.28142,1.74627 2.05284,2.50113c2.20875,2.15917 5.17562,3.36688 8.26439,3.36411c0.38737,0 0.78965,-0.10689 1.11529,-0.21875c0.45241,4.71141 0.64341,9.2136 0.71052,12.49733l0.00124,0.01864c0.00829,1.66755 0.01574,3.03847 0.02486,4.94259c-0.087,9.88518 0.97899,32.03941 -4.35841,37.48331c-8.27103,1.92856 -23.49064,2.80688 -38.75915,2.81226h-0.00249c-15.26892,-0.00538 -30.48853,-0.8837 -38.75956,-2.81226c-5.33739,-5.44348 -4.2714,-27.59771 -4.35841,-37.48289c0.00829,-1.90453 0.01657,-3.27545 0.02486,-4.94259l0.00082,-0.01864c0.06753,-3.2829 0.25853,-7.78551 0.71094,-12.49692c0.32564,0.11186 0.72834,0.21875 1.11529,0.21875c3.08877,0.00277 6.05565,-1.20494 8.26439,-3.36411c0.77142,-0.75485 1.51716,-1.56067 2.05243,-2.50113l0.00249,-0.00165c0.53569,0.9388 1.12067,1.74502 1.89043,2.49905c2.2079,2.16076 5.17512,3.3695 8.2644,3.3666c3.21038,0 6.12248,-1.28763 8.24699,-3.36494c0.77565,-0.75363 1.44221,-1.61193 1.98034,-2.55002zM300.94813,173.24943c-1.588,0 -7.94041,0.00001 -12.36676,12.43188l-4.75572,17.05421c-3.52318,12.68792 1.12772,12.99781 6.92953,13.00899c8.6037,-0.32026 13.36813,-6.56871 13.36813,-12.81634c4.76234,0.78054 10.31848,1.17122 15.87503,1.17122h0.00249c5.55614,-0.00042 11.11227,-0.39068 15.87503,-1.17122c0,6.24764 4.764,12.49609 13.36812,12.81634c5.80181,-0.01119 10.45313,-0.32149 6.92995,-13.00899l-4.75447,-17.05462c-4.42635,-12.43187 -10.77876,-12.43188 -12.36676,-12.43188l0.00082,0.00414h-0.0058c-3.36119,0.00663 -6.34703,-0.00041 -10.0467,4.03776c-2.91209,-0.30534 -5.9547,-0.45739 -8.99978,-0.45325h-0.00248c-3.04508,-0.00456 -6.08769,0.14791 -8.99937,0.45325c-3.69967,-4.03776 -6.68551,-4.03072 -10.0467,-4.03776h-0.00621l0.00082,-0.00414zM319.99959,183.01985l0.00124,-0.00083v0.00249c0,0 9.05736,8.31913 10.68472,11.27515l-5.9261,-0.23739v5.16796c0,0.24195 -2.37848,0.14335 -4.75821,0.03315h-0.00248c-2.38055,0.11021 -4.75862,0.2088 -4.75862,-0.03315v-5.16796l-5.92611,0.23739c1.62694,-2.95603 10.67644,-11.26686 10.68473,-11.27515v-0.00249z" fill="#ff4f4f" stroke-opacity="0.50196" stroke="#ff0000" stroke-width="2.5"/><path d="M282.42408,134.84057c3.92298,-0.3418 23.33611,-0.56427 37.5755,-0.56552c14.2398,-0.00207 23.79432,0.08161 37.57633,0.56552c4.43339,2.63204 13.16967,12.66886 13.25253,15.30131v4.35677c0,5.52344 -5.16214,10.37654 -9.84908,10.37654c-5.6274,0 -10.31724,-4.66418 -10.31724,-10.20005c0,5.53587 -4.52827,10.20005 -10.15649,10.20005c-5.62781,0 -10.01108,-4.66418 -10.01108,-10.20005c0,5.53587 -4.81496,10.20005 -10.4436,10.20005h-0.10192c-5.62823,0 -10.44319,-4.66418 -10.44319,-10.20005c0,5.53587 -4.38285,10.20005 -10.01149,10.20005c-5.62823,0 -10.15649,-4.66418 -10.15649,-10.20005c-0.00041,5.53587 -4.68943,10.20005 -10.31724,10.20005c-4.68694,0 -9.84908,-4.85393 -9.84908,-10.37654v-4.35677c0.08286,-2.63204 8.81914,-12.66844 13.25336,-15.30131zM309.43584,162.27298c0.53237,0.93705 1.19276,1.79531 1.96211,2.55001c2.2085,2.16021 5.1759,3.36845 8.26522,3.36536c0.1131,0 0.22497,-0.00497 0.33682,-0.00829h0.0029c0.11186,0.00332 0.22372,0.00829 0.33558,0.00829c3.08938,0.00298 6.05679,-1.20541 8.26522,-3.36577c0.76936,-0.7547 1.42975,-1.61296 1.96211,-2.55001c0.53813,0.93808 1.20468,1.79638 1.98034,2.55001c2.12452,2.07688 5.03702,3.36535 8.247,3.36535c3.0891,0.00299 6.05617,-1.2056 8.26399,-3.36618c0.76977,-0.75361 1.35433,-1.56025 1.89044,-2.49905l0.00249,0.00166c0.53568,0.94088 1.28142,1.74627 2.05284,2.50113c2.20874,2.15917 5.17562,3.36687 8.2644,3.36411c0.38737,0 0.78965,-0.10689 1.11529,-0.21875c0.45241,4.71141 0.6434,9.2136 0.71052,12.49733l0.00125,0.01865c0.00828,1.66755 0.01574,3.03847 0.02486,4.94259c-0.087,9.88518 0.97898,32.03942 -4.35841,37.48331c-8.27102,1.92856 -23.49064,2.80688 -38.75915,2.81226h-0.00248c-15.26892,-0.00539 -30.48854,-0.8837 -38.75956,-2.81226c-5.33739,-5.44348 -4.2714,-27.59771 -4.35841,-37.48289c0.00828,-1.90453 0.01658,-3.27545 0.02486,-4.94259l0.00083,-0.01865c0.06753,-3.28291 0.25852,-7.78551 0.71093,-12.49692c0.32564,0.11186 0.72833,0.21875 1.11529,0.21875c3.08877,0.00277 6.05565,-1.20494 8.2644,-3.36411c0.77142,-0.75485 1.51715,-1.56067 2.05243,-2.50113l0.00249,-0.00166c0.53568,0.9388 1.12067,1.74503 1.89044,2.49905c2.2079,2.16076 5.17512,3.3695 8.2644,3.3666c3.21039,0 6.12248,-1.28764 8.247,-3.36494c0.77565,-0.75363 1.44221,-1.61193 1.98034,-2.55001zM300.94813,173.24943c-1.588,0 -7.94042,0 -12.36677,12.43188l-4.75571,17.05421c-3.52318,12.68791 1.12772,12.99781 6.92953,13.009c8.60371,-0.32025 13.36812,-6.56871 13.36812,-12.81635c4.76235,0.78054 10.31848,1.17123 15.87504,1.17123h0.00248c5.55614,-0.00041 11.11228,-0.39068 15.87504,-1.17123c0,6.24763 4.764,12.49609 13.36812,12.81635c5.80182,-0.01119 10.45313,-0.32149 6.92995,-13.009l-4.75447,-17.05462c-4.42635,-12.43188 -10.77877,-12.43188 -12.36677,-12.43188l0.00083,0.00414h-0.0058c-3.36119,0.00663 -6.34703,-0.00041 -10.0467,4.03776c-2.91209,-0.30534 -5.95469,-0.45739 -8.99978,-0.45324h-0.00248c-3.04508,-0.00456 -6.08768,0.14791 -8.99936,0.45324c-3.69967,-4.03776 -6.68551,-4.03072 -10.0467,-4.03776h-0.00621l0.00083,-0.00414zM319.99959,183.01985l0.00124,-0.00083v0.00248c0,0 9.05736,8.31913 10.68472,11.27515l-5.9261,-0.23739v5.16797c0,0.24195 -2.37848,0.14335 -4.7582,0.03314h-0.00248c-2.38055,0.1102 -4.75862,0.20881 -4.75862,-0.03314v-5.16797l-5.9261,0.23739c1.62694,-2.95602 10.67644,-11.26687 10.68472,-11.27515v-0.00248z" fill="#ff4f4f" stroke="none" stroke-width="1"/></g></g></svg>