<svg version="1.1" xmlns="http://www.w3.org/2000/svg" xmlns:xlink="http://www.w3.org/1999/xlink" width="188" height="116.53454" viewBox="0,0,188,116.53454"><g transform="translate(-226,-121.73273)"><g stroke-miterlimit="10"><path d="M226,238.26726v-116.53453h188v116.53454z" fill="#ffffff" stroke="none" stroke-width="0"/><path d="M385.15916,208.23414c-1.92233,0.2403 -3.12378,0.24029 -3.60436,0.48058c-0.96116,0.48058 -3.12378,0.96116 -5.76698,0.96116c-3.36406,0 -6.48784,-1.20145 -9.13104,-3.12377h-1.92232c-0.72087,0 -1.20145,0 -1.92233,-0.24029c-2.64319,0.96116 -5.04611,0.96116 -6.48785,0.96116h-0.48058c-3.36406,0.2403 -6.72813,-0.48059 -9.61162,-1.92233c-1.44174,0.48058 -2.6432,0.72088 -4.08494,0.72088l-8.89075,0.24029c-4.08494,0 -7.6893,-1.44174 -10.57279,-4.08494c-1.20146,0 -2.4029,-0.24029 -3.36406,-0.48059c-1.44174,1.68204 -3.36407,3.12378 -5.76698,4.32524c-4.56552,2.16261 -9.61161,2.40291 -14.41743,0.48058c-0.48058,-0.2403 -1.20146,-0.48058 -1.68204,-0.72087l-5.52668,0.72087h-1.68203c-0.72087,0.2403 -1.20145,0.72086 -1.68203,0.96116c-3.60436,1.68204 -6.96843,1.68204 -8.41017,1.68204h-1.20146c-4.08494,0 -8.16987,-1.20145 -11.29365,-3.36407c-0.96116,0.2403 -2.16262,0.48058 -3.12378,0.48058c-2.16262,1.44174 -4.80581,2.4029 -7.68929,2.64319h-0.96117c-7.92959,0 -14.41743,-6.00726 -15.1383,-13.93685v-0.24029c0,-1.20146 -0.2403,-3.84465 0,-6.72814c0,-1.44174 0.2403,-3.60435 0.2403,-4.08494c0,-1.92233 0.48057,-3.84465 1.20145,-5.76697c-0.48058,-1.92233 -0.2403,-3.84465 0,-5.76698v-0.72088c0.2403,-1.68204 0.72087,-5.0461 2.40291,-8.41016c3.12378,-5.76698 8.89075,-9.37134 15.37859,-9.37134c2.16262,-1.20146 4.32523,-1.68203 6.72814,-1.68203h0.72087c4.80581,0.2403 9.13105,2.6432 11.77424,6.48785c2.16262,-1.92233 4.80581,-3.12378 7.6893,-3.60436c5.76698,-0.72088 10.57278,-0.96116 14.65772,-0.24029c2.16262,-1.92233 5.0461,-3.36407 7.92959,-3.60436l6.24756,-0.96116h1.92233c3.60436,0 7.20871,1.44174 10.0922,3.84465h0.48059l9.13104,-0.24029c3.84465,0 7.20872,-0.24029 7.92959,-0.24029h1.20145c3.36406,0 6.96843,1.20146 9.61163,3.36407c2.64319,-1.92233 5.76698,-2.88349 9.13104,-2.88349h3.12378c2.4029,-1.44174 5.0461,-2.40291 7.92958,-2.40291l7.6893,-0.24029h0.24029c8.16988,0 14.89801,6.72814 15.13831,14.89802c0,3.84465 -1.20146,7.20872 -3.60436,10.09221v6.96842c2.16262,2.40291 3.36406,5.52669 3.60436,8.89076c0.48058,8.16988 -5.76697,15.1383 -14.17714,15.85917z" fill="#ffffff" stroke-opacity="0.50196" stroke="#000000" stroke-width="5"/><path d="M385.15916,208.23414c-1.92232,0.24029 -3.12378,0.24029 -3.60436,0.48058c-0.96116,0.48058 -3.12378,0.96116 -5.76697,0.96116c-3.36407,0 -6.48784,-1.20145 -9.13104,-3.12378h-1.92232c-0.72087,0 -1.20145,0 -1.92232,-0.24029c-2.6432,0.96116 -5.04611,0.96116 -6.48785,0.96116h-0.48058c-3.36407,0.24029 -6.72814,-0.48059 -9.61162,-1.92233c-1.44174,0.48058 -2.6432,0.72087 -4.08494,0.72087l-8.89075,0.24029c-4.08494,0 -7.6893,-1.44174 -10.57278,-4.08494c-1.20145,0 -2.4029,-0.24029 -3.36407,-0.48059c-1.44174,1.68204 -3.36407,3.12378 -5.76697,4.32523c-4.56552,2.16262 -9.61162,2.4029 -14.41743,0.48058c-0.48058,-0.24029 -1.20145,-0.48058 -1.68204,-0.72087l-5.52668,0.72087h-1.68204c-0.72087,0.24029 -1.20145,0.72087 -1.68203,0.96116c-3.60436,1.68204 -6.96843,1.68204 -8.41017,1.68204h-1.20145c-4.08494,0 -8.16988,-1.20145 -11.29366,-3.36407c-0.96116,0.24029 -2.16261,0.48058 -3.12377,0.48058c-2.16262,1.44174 -4.80581,2.4029 -7.6893,2.64319h-0.96117c-7.92959,0 -14.41743,-6.00726 -15.1383,-13.93685v-0.24029c0,-1.20145 -0.24029,-3.84465 0,-6.72814c0,-1.44174 0.24029,-3.60436 0.24029,-4.08494c0,-1.92232 0.48058,-3.84465 1.20145,-5.76697c-0.48058,-1.92232 -0.24029,-3.84465 0,-5.76697v-0.72087c0.24029,-1.68204 0.72087,-5.0461 2.40291,-8.41017c3.12378,-5.76697 8.89075,-9.37133 15.3786,-9.37133c2.16262,-1.20145 4.32523,-1.68204 6.72813,-1.68204h0.72087c4.80581,0.24029 9.13104,2.6432 11.77424,6.48785c2.16262,-1.92232 4.80581,-3.12378 7.6893,-3.60436c5.76697,-0.72087 10.57278,-0.96117 14.65772,-0.24029c2.16262,-1.92232 5.04611,-3.36407 7.92959,-3.60436l6.24756,-0.96116h1.92232c3.60436,0 7.20872,1.44174 10.0922,3.84465h0.48058l9.13104,-0.24029c3.84465,0 7.20872,-0.24029 7.92959,-0.24029h1.20145c3.36407,0 6.96843,1.20145 9.61163,3.36407c2.6432,-1.92232 5.76697,-2.88349 9.13104,-2.88349h3.12378c2.4029,-1.44174 5.0461,-2.4029 7.92959,-2.4029l7.6893,-0.24029h0.24029c8.16988,0 14.89801,6.72814 15.1383,14.89801c0,3.84465 -1.20145,7.20872 -3.60436,10.0922v6.96842c2.16262,2.4029 3.36407,5.52669 3.60436,8.89075c0.48058,8.16988 -5.76697,15.1383 -14.17714,15.85918z" fill="#ffffff" stroke="none" stroke-width="1"/><path d="M384.67858,199.58368c-3.12378,0.24029 -5.0461,0.48058 -5.52668,0.72087l-0.24029,0.24029c-0.72087,0.24029 -1.68203,0.72087 -2.88348,0.72087c-1.44174,0 -3.12378,-0.48058 -4.32523,-1.68203c-0.48058,-0.48058 -0.96116,-0.96116 -1.20145,-1.44174h-5.52668c-0.96116,0 -1.92232,-0.24029 -2.6432,-0.72087c-0.24029,0.24029 -0.72087,0.24029 -0.96116,0.48058c-1.92232,0.96116 -3.60435,0.96116 -4.80581,0.96116h-1.20145c-3.60436,0 -6.48784,-1.20145 -8.41017,-3.36407c-1.20145,1.20145 -2.88349,1.92232 -4.56552,1.92232l-8.89075,0.24029c-3.12378,0 -6.00727,-2.4029 -6.48785,-5.28639c-1.20145,0.72087 -2.4029,1.20145 -3.84465,1.20145c-1.44174,0 -2.88348,-0.48058 -4.08494,-1.20145c-0.24029,-0.24029 -0.48058,-0.48058 -0.72087,-0.48058c-0.72087,0.48058 -1.68203,0.48058 -2.64319,0.48058h-0.72087c-0.96116,2.88348 -2.6432,4.80581 -5.28639,6.00726c-1.20145,0.48058 -2.64319,0.96116 -3.84465,0.96116c-1.20145,0 -2.6432,-0.24029 -3.84465,-0.72087c-1.20145,-0.48058 -2.16261,-1.20145 -2.88348,-1.92233c-0.48058,0.24029 -0.96116,0.24029 -1.44174,0.48058l-6.96843,0.96117h-0.96116c-0.72087,0 -1.20145,0 -1.92232,-0.24029c-0.96116,0.96116 -2.16262,1.44174 -3.12378,1.92232c-1.92232,0.96116 -3.60435,0.96116 -4.80581,0.96116h-1.20145c-4.32523,0 -7.6893,-1.92232 -9.61162,-4.56552c-1.92232,1.20145 -4.32523,1.92233 -6.48785,1.92233h-1.44174c0,0.24029 -0.24029,0.24029 -0.24029,0.48058c-1.20145,1.20145 -2.88348,2.16261 -4.56552,2.16261h-0.48059c-3.36407,0 -6.24755,-2.64319 -6.48784,-6.24755v-0.24029c0,-1.20145 -0.24029,-3.36407 0,-5.76697c0,-1.68204 0.24029,-4.32523 0.24029,-4.32523c0,-1.68204 0.72087,-3.12378 1.68203,-4.32523c-0.96116,-1.92232 -1.20145,-4.08494 -0.72087,-6.48784v-0.48058c0.24029,-1.44174 0.48058,-3.60436 1.44174,-5.76697c1.68204,-3.12378 4.80581,-4.80581 8.41017,-4.80581h1.68203c1.20145,-0.96116 2.6432,-1.68204 4.32523,-1.68204c3.60436,0 6.48784,3.12378 6.48784,6.72814v2.64319c1.20145,-0.48058 2.6432,-0.72087 4.08494,-0.72087c0.72087,0 1.20145,0 1.92232,0.24029c0.96116,-1.20145 2.40291,-1.92232 3.84465,-2.16261c0.24029,-0.48058 0.48058,-0.72087 0.72087,-1.20145c0.96116,-1.44174 2.6432,-2.4029 4.32523,-2.6432c1.44174,-0.24029 4.32523,-0.48058 7.6893,-0.48058c3.84465,0 6.96843,0.48058 9.37133,1.68204c0.72087,-2.6432 2.6432,-4.56552 5.52668,-5.0461l6.24756,-0.96116h0.96116c1.92232,0 3.60435,0.72087 4.80581,2.16261c0.48058,0.48058 1.20145,1.44174 1.44175,2.16262l0.24029,0.72087c1.20145,-0.72087 2.40291,-1.20145 3.84465,-1.20145l9.37133,-0.24029c4.56552,0 8.65046,-0.24029 8.65046,-0.48059h0.48058c1.68204,0 3.60436,0.72087 4.80581,1.92233c0.96116,0.96116 1.68203,2.16262 1.92232,3.60436h0.48058c0.72087,0 1.20145,0 1.92233,0.24029c0.96116,-1.20145 2.4029,-1.92232 3.84465,-2.16262c1.20145,-1.68204 3.36407,-3.12377 5.76697,-3.12377h6.24756c1.20145,-1.44174 2.88348,-2.40291 5.0461,-2.40291h7.6893c3.60436,0 6.48784,2.88349 6.72814,6.48785c0,2.6432 -1.44174,5.0461 -3.60436,6.00726v14.65772c1.92232,0.96116 3.36407,3.12378 3.60436,5.52668c0.24029,3.60436 -2.6432,6.72814 -6.24756,6.96843z" fill="#f9a83a" stroke="none" stroke-width="1"/><path d="M321.24187,178.6784l-4.80581,0.72087l1.68204,-8.65046z" fill="#f9a83a" stroke="none" stroke-width="1"/><path d="M260.68866,179.15898c2.88348,0.48058 8.89075,1.44174 8.89075,7.449c0,1.68204 -0.96117,3.60436 -2.40291,4.80581c-1.68204,1.44174 -3.84465,2.16261 -6.00726,1.68203c-1.68204,-0.24029 -3.12378,-0.96116 -4.08494,-1.68203v2.6432c0,0.72087 -0.72087,1.44174 -1.44174,1.44174c-0.72087,0 -1.44174,-0.72087 -1.44174,-1.44174c0,-0.24029 -0.24029,-2.40291 0,-5.28639c0.24029,-1.68204 0.24029,-4.56552 0.24029,-4.56552c0,-0.72087 0.72087,-1.44174 1.44174,-1.44174c0.72087,0 1.44175,0.72087 1.44175,1.44174v0.48058c0,0.72087 0.24029,1.92232 0.48058,2.88348c0.48058,0.96116 1.92232,1.68203 2.4029,1.92232c0.48058,0 0.72087,0.24029 1.20145,0.24029c1.44174,0.24029 2.88348,0 3.84465,-0.96116c0.96116,-0.72087 1.44174,-1.68204 1.44174,-2.6432c0,-2.4029 -2.6432,-3.12377 -6.48784,-3.84465c-3.60436,-0.72087 -5.0461,-3.60436 -4.56552,-8.16988v-0.48059c0.24029,-2.4029 0.72087,-6.48784 5.28639,-5.76697c1.68204,0 3.12377,1.20145 4.32523,2.4029v-2.6432c0,-0.72087 0.72087,-1.44174 1.44174,-1.44174c0.72087,0 1.44175,0.72087 1.44175,1.44174c0,0.24029 -0.48059,9.37133 -0.48059,9.37133c-0.24029,0.72087 -0.96116,1.44175 -1.68203,1.20145c-0.72087,-0.24029 -1.20145,-0.72087 -1.20145,-1.20145v-0.96116c-0.24029,-0.72087 -0.24029,-1.44175 -0.72087,-2.40291c-0.48058,-1.44174 -1.44175,-2.16261 -1.92233,-2.64319c-0.48058,-0.48058 -0.96116,-0.72087 -1.44174,-0.72087c-1.44174,0 -1.68204,0.72087 -2.16262,3.60436v0.48058c-0.48058,3.36407 0.48058,4.56552 2.16262,4.80581M301.05747,175.07405c0.72087,-0.96116 1.20145,-1.92233 1.20145,-2.40291v-0.48058c-0.72087,-1.20145 -4.08494,-1.44174 -7.92959,-1.44174v6.72814c1.44174,-0.24029 2.88349,-0.48058 3.84465,-0.96116l0.72087,-0.24029c0.24029,0 0.96116,-0.24029 1.20145,-0.48058c0.48058,-0.24029 0.72087,-0.48058 0.96116,-0.72087M309.46764,188.04973c0.72087,0.24029 1.20145,0.96116 0.24029,1.44174c-0.48058,2.16262 -1.44174,2.88348 -2.6432,3.60436c-1.44174,0.72087 -2.64319,0.24029 -3.60435,0c-1.20145,-0.48058 -1.92232,-1.68203 -2.16262,-2.16261c-0.48058,-1.20145 -0.72087,-4.08494 -0.72087,-4.80581c-0.24029,-3.60436 -0.72087,-5.0461 -1.20145,-5.76697c-0.24029,-0.48058 -0.72087,-0.72087 -1.20145,-0.72087h-0.48058c-1.20145,0.48058 -2.40291,0.72087 -3.84465,0.96116v8.41017l2.16262,-0.24029c0.72087,-0.24029 1.68204,0.48058 1.68204,1.20145c0.24029,0.72087 -0.48058,1.68203 -1.20145,1.68203l-6.96842,0.96116c-0.72087,0.24029 -1.68204,-0.48058 -1.68204,-1.20145c-0.24029,-0.72087 0.48058,-1.68204 1.20145,-1.68204l1.92232,-0.24029v-8.41017h-0.72087c-0.72087,0 -1.44174,-0.72087 -1.44174,-1.44174c0,-0.72087 0.72087,-1.44174 1.44174,-1.44174h0.72087v-6.72814c-0.72087,0 -1.44174,0.24029 -2.16262,0.24029c-0.72087,0.24029 -1.68204,-0.48058 -1.68204,-1.20145c-0.24029,-0.72087 0.48058,-1.68204 1.20145,-1.68204c3.36407,-0.48058 13.69656,-1.68204 16.09947,2.4029c0.96116,1.68204 0.48058,3.60436 -1.20145,6.00726c0,0 -0.72087,0.72087 -1.44174,1.20145c1.20145,1.20145 2.16262,3.60436 2.16262,7.92959c0,1.20145 0.24029,3.12378 0.48058,3.60436c0.24029,0.24029 0.48058,0.72087 0.48058,0.72087c0.72087,0.24029 1.20145,0.48059 1.44174,0.24029c0.24029,-0.24029 0.72087,-0.24029 1.20145,-1.92233c0.24029,-0.72087 1.20145,-1.20145 1.92232,-0.96116M361.85097,183.48421c0.72087,0 1.44175,0.48058 1.44175,0.96116v2.40291c-0.24029,0.48058 -0.48059,2.16262 -0.96117,3.12378c-0.48058,0.72087 -0.72087,1.20145 -1.20145,1.68203c-0.72087,0.72087 -1.44174,1.20145 -2.16262,1.44174c-0.96116,0.48058 -1.92232,0.48058 -2.88348,0.48058h-0.72087c-5.28639,0 -6.96842,-4.32523 -7.20872,-6.48784v-6.72814c0.24029,-3.60436 1.44174,-5.76697 3.12378,-6.96842c2.16262,-1.44174 5.0461,-0.24029 5.76697,0.24029c0.72087,0.48058 1.44174,0.72087 1.92232,1.20145v-2.6432c0,-0.72087 0.72087,-1.44174 1.44174,-1.44174c0.72087,0 1.44174,0.72087 1.44174,1.44174v6.48785c0,0.72087 -0.24029,1.20145 -0.96116,1.44174c-0.72087,0 -1.44174,-0.24029 -1.68203,-0.72087c-0.24029,0 -1.44175,-2.16261 -3.36407,-2.88348c-1.68204,-0.48058 -2.64319,-0.72087 -3.36407,-0.24029c-0.96116,0.72087 -1.44174,2.40291 -1.68204,4.80581v6.24756c0,0.72087 0.48059,3.84465 4.32523,3.60436h0.96116c0.96116,0 1.20145,0 1.68203,-0.24029c0.48058,-0.24029 0.96116,-0.48058 1.20145,-0.72087c0.48058,-0.48058 0.72087,-0.72087 0.96116,-1.20145c0.24029,-0.24029 0.48058,-1.20145 0.48058,-1.92232v-1.92233c0,-0.72087 0.72087,-1.44174 1.44174,-1.44174M385.63974,193.09583c0,0.72087 -0.48058,1.44175 -1.20145,1.92233c-3.36407,0.24029 -6.24755,0.48058 -6.96842,0.96116c-0.96116,0.24029 -1.68204,0.48058 -2.16262,0c-0.72087,-0.48058 -0.72087,-1.44174 -0.24029,-1.92232c0.72087,-0.96116 2.16262,-0.96117 4.08494,-1.44175v-11.05336l-8.65046,1.44174v7.44901h2.40291c0.72087,0 1.44174,0.72087 1.44174,1.44174c0,0.72087 -0.72087,1.44174 -1.44174,1.44174l-7.92959,-0.24029c-0.72087,0 -1.44174,-0.72087 -1.44174,-1.44174c0,-0.72087 0.72087,-1.44174 1.44174,-1.44174h2.40291v-19.46353h-2.40291c-0.72087,0 -1.44174,-0.72087 -1.44174,-1.44174c0,-0.72087 0.72087,-1.44174 1.44174,-1.44174h7.6893c0.72087,0 1.44174,0.72087 1.44174,1.44174c0,0.72087 -0.72087,1.44174 -1.44174,1.44174h-2.4029v9.13104l8.65046,-1.44174v-10.0922h-2.4029c-0.72087,0 -1.44174,-0.72087 -1.44174,-1.44174c0,-0.72087 0.72087,-1.44175 1.44174,-1.44175l7.6893,-0.24029c0.72087,0 1.44174,0.72087 1.44174,1.44174c0,0.72087 -0.72087,1.44174 -1.44174,1.44174h-2.16262c0.24029,16.33976 0.24029,21.38586 0.24029,23.78877c0.72087,-0.24029 1.44175,-0.24029 1.92233,-0.24029c0.72087,0 1.44174,0.72087 1.44174,1.44174" fill="#ffffff" stroke="none" stroke-width="1"/><path d="M321.24187,178.6784l-3.12378,-7.92959l-1.68204,8.65046zM329.17146,181.80218c0.72087,-0.24029 1.44174,0.24029 1.68204,0.72087c0.24029,0.72087 -0.24029,1.68203 -0.96116,1.92232c-2.6432,0.96116 -5.28639,2.16262 -6.00726,3.12378c-0.48058,0.48058 -1.44174,0.72087 -2.16262,0.24029c-0.48058,-0.48058 -0.72087,-1.20145 -0.24029,-1.92233c0.72087,-0.72087 1.20145,-0.96116 2.40291,-1.68203l-1.44175,-3.60436l-6.72813,1.20145l-0.24029,2.16262c0.96116,0 1.44174,0.72087 1.44174,1.44174c0,0.96116 -0.72087,1.44175 -1.44174,1.44175l-7.20872,-0.24029c-0.96116,0 -1.44174,-0.72087 -1.44174,-1.44174c0,-0.96116 0.72087,-1.44174 1.44174,-1.44174l4.32523,0.24029c0.72087,-3.36407 2.88348,-14.17714 3.36407,-16.82034c-1.92232,0.24029 -4.32523,0.48058 -4.32523,0.48058c-0.96116,0.24029 -1.68204,-0.48058 -1.68204,-1.20145c-0.24029,-0.96116 0.48058,-1.68204 1.20145,-1.68204l6.24756,-0.72087c0.48058,0 0.96116,0.24029 1.20145,0.48058c0.24029,0 0.48058,0.48058 0.48058,0.72087l5.52668,13.21598l1.92232,4.56552c1.44174,-0.72087 2.16262,-0.96116 2.6432,-1.20145" fill="#ffffff" stroke="none" stroke-width="1"/><path d="M346.47238,167.14446c0.48058,0 0.96117,0.24029 0.96117,0.72087c0.48058,0.48058 0.48058,0.72087 0.48058,1.20145c-0.24029,1.92232 -0.24029,5.28639 -0.24029,5.28639c0,0.48058 -0.24029,1.20145 -0.72087,1.44174c-0.72087,0.48058 -1.44175,0.24029 -1.92233,-0.48058c0,-0.24029 -0.24029,-0.72087 -0.24029,-2.16262v-2.88348c-1.44174,0 -3.60436,0.24029 -6.00727,0.24029v18.98295h2.88349c0.72087,0 1.44174,0.72087 1.44174,1.44175c0,0.72087 -0.72087,1.44174 -1.44174,1.44174l-8.89075,0.24029c-0.72087,0 -1.44174,-0.72087 -1.44174,-1.44174c0,-0.72087 0.72087,-1.44174 1.44174,-1.44174h3.12378v-18.98295h-6.24756c0.48058,1.92232 0.96116,5.76697 0.96116,5.76697c0,0.72087 -0.48058,1.44174 -1.20145,1.44174c-0.72087,0.24029 -1.68204,-0.48058 -1.68204,-1.20145l-1.20145,-7.20872c-0.24029,-0.48058 0,-0.96116 0.24029,-1.20145c0.48058,-0.24029 0.72087,-0.48058 1.20145,-0.48058l9.37133,-0.24029c4.80581,-0.24029 9.13104,-0.48058 9.13104,-0.48058M285.19829,184.92595c0.72087,0 1.44174,0.72087 1.44174,1.20145v2.4029c-0.24029,0.48058 -0.48058,2.16262 -0.96116,3.12378c-0.48058,0.72087 -0.72087,1.20145 -1.20145,1.68204c-0.72087,0.72087 -1.44174,1.20145 -2.16262,1.44174c-0.96116,0.48058 -1.92233,0.48058 -2.88349,0.48058h-0.72087c-5.52668,0 -7.20872,-4.32523 -7.44901,-6.48784v-6.72814c0.24029,-3.60436 1.44174,-5.76697 3.12378,-6.96842c2.4029,-1.20145 5.04611,-0.24029 6.00727,0.24029c0.72087,0.24029 1.44174,0.72087 1.92232,1.20145v-2.6432c0,-0.72087 0.72087,-1.44174 1.44174,-1.44174c0.72087,0 1.44174,0.72087 1.44174,1.44174v6.48784c0,0.72087 -0.24029,1.20145 -0.96116,1.44174c-0.72087,0 -1.44174,-0.24029 -1.68204,-0.72087c0,0 -1.44174,-2.16261 -3.36407,-2.88348c-1.68204,-0.48058 -2.64319,-0.72087 -3.36407,-0.24029c-0.96116,0.72087 -1.44174,2.40291 -1.68204,4.80581v6.24755c0,0.72087 0.48058,3.60436 4.32523,3.60436h0.96116c0.96116,0 1.20145,0 1.68204,-0.24029c0.48058,-0.24029 0.96116,-0.48058 1.20145,-0.72087c0.48058,-0.48058 0.72087,-0.72087 0.96116,-1.20145c0.24029,-0.48058 0.48058,-1.44175 0.48058,-1.92233v-2.16261c0,-0.72087 0.72087,-1.44175 1.44174,-1.44175" fill="#ffffff" stroke="none" stroke-width="1"/></g></g></svg>